<svg width="144" height="179" viewBox="0 0 144 179" fill="none" xmlns="http://www.w3.org/2000/svg">
<g clip-path="url(#clip0_2_110)">
<path d="M136.082 114.456C154.195 67.2344 140.189 17.9322 104.798 4.33668C69.4074 -9.25879 26.0339 18.0009 7.92071 65.2229C-10.1925 112.445 3.81379 161.747 39.2046 175.343C74.5953 188.938 117.969 161.678 136.082 114.456Z" fill="#FFF122"/>
<path d="M51.4268 86.062C52.6313 82.5189 54.4051 79.4921 56.7483 77.0059C57.1839 76.5432 57.6851 76.1658 58.1742 75.8833C58.9285 75.4474 59.4298 75.8955 59.2181 76.9255C59.0429 77.7778 58.7412 78.7811 58.2764 79.4483C54.8212 84.4013 53.9014 89.8388 53.6605 95.3957C53.5364 98.252 54.3297 100.456 55.5536 102.294C55.668 102.465 55.7823 102.638 55.9064 102.796C58.6341 106.229 61.3083 109.738 64.1138 113.053C65.2307 114.37 66.569 115.4 67.9316 116.306C69.7735 117.531 71.9294 117.158 74.1899 115.721C77.7936 113.428 80.9057 110.067 83.6626 105.932C84.5045 104.668 85.176 103.132 86.4924 102.652C88.1349 102.053 89.6557 102.097 90.9429 102.91C93.9333 104.8 93.5756 106.765 91.2543 110.71C89.9087 112.997 88.1276 114.467 86.2613 115.524C80.913 118.553 75.572 121.687 70.1969 124.444C66.2113 126.487 62.4762 126.482 59.2351 124.334C57.2496 123.019 55.887 120.876 54.9721 118.191C54.1813 115.872 52.8843 114.243 51.4852 112.682C50.4243 111.499 49.4291 110.174 48.6018 108.686C47.2805 106.31 46.9983 103.261 47.8061 99.8227C48.8865 95.2228 50.108 90.6375 51.2686 86.045C51.3222 86.0523 51.3733 86.0571 51.4268 86.0644V86.062Z" fill="black"/>
<path d="M83.6869 63.2405C82.7014 65.9288 81.6624 67.8282 80.3849 69.5425C78.5138 72.053 76.6572 74.5855 74.7665 77.0693C74.1169 77.9216 73.4137 78.7227 72.6886 79.4338C71.6496 80.4492 70.5935 80.6513 69.7102 80.0255C67.2478 78.2771 65.7246 75.6253 66.3548 71.0279C66.5811 69.3671 66.783 67.7064 67.0702 66.0457C67.5349 63.35 68.4425 62.0473 70.4208 61.1512C71.3381 60.7348 72.2603 60.3646 73.1801 60.0164C75.1632 59.2688 77.0416 58.0148 78.8374 56.2883C79.5503 55.604 80.2852 54.9368 81.0395 54.3938C82.7914 53.1324 84.0178 53.6633 84.4485 55.8451C84.9497 58.3849 84.4679 61.0757 83.6844 63.2453L83.6869 63.2405Z" fill="black"/>
<path d="M93.2837 83.812C93.1718 84.1919 93.0404 84.5645 92.8871 84.9297C91.8554 87.3965 90.6558 89.3275 88.9476 90.6741C87.7699 91.6019 86.6044 91.9087 85.6116 91.2975C84.0422 90.3332 82.4946 89.308 81.0444 88.1124C79.7767 87.0653 79.7402 85.5994 80.6819 83.3908C81.4167 81.6619 82.3511 80.1034 83.5653 78.9346C85.2515 77.3103 86.9767 75.7787 88.7019 74.2543C89.1399 73.8671 89.6362 73.5993 90.1132 73.3655C91.9089 72.4864 93.4248 73.1293 93.9139 75.2357C94.1937 76.4313 94.2156 77.8388 94.2108 79.2C94.2083 80.0693 93.982 81.0336 93.7825 81.9492C93.6389 82.614 93.4394 83.2763 93.2812 83.8145L93.2837 83.812Z" fill="black"/>
<path d="M34.0898 60.2404L25.3423 52.5699L28.7221 47.4148C31.4984 43.1777 34.63 42.116 37.4088 44.556C39.9978 46.8255 40.3019 50.7655 37.5256 55.0025L34.0898 60.2428V60.2404ZM29.9971 50.5658L34.5862 54.591L35.2116 53.6389C36.5158 51.6494 36.3017 49.9595 34.7809 48.625C33.1993 47.237 31.9169 47.6412 30.5446 49.733L29.9971 50.5658Z" fill="black"/>
<path d="M41.4237 31.9617L44.5723 28.8156L48.8281 34.3115C50.9913 37.1046 50.1202 40.2459 47.4192 42.9439C44.5504 45.81 41.9055 46.2727 39.701 43.4285L35.4452 37.9325L38.623 34.7596L42.599 39.8928C43.6112 41.198 44.4434 41.3757 45.4921 40.3286C46.5141 39.3083 46.39 38.3781 45.3972 37.0973L41.4213 31.9617H41.4237Z" fill="black"/>
<path d="M75.3944 26.7019L74.7837 14.3609L79.093 14.2976L79.3752 20.0274L83.5531 14.2319L88.5462 14.1588L84.3853 19.5306L89.3832 26.495L84.3731 26.568L80.8206 21.206L79.5188 22.9324L79.7013 26.6338L75.392 26.6971L75.3944 26.7019Z" fill="black"/>
<path d="M89.972 26.9357L92.999 15.2522L103.457 19.2579L102.715 22.1216L96.2352 19.6402L95.7827 21.3837L100.892 23.3416L100.257 25.7913L95.1476 23.8334L94.6999 25.5624L101.472 28.1557L100.722 31.0535L89.972 26.9357Z" fill="black"/>
<path d="M107.555 31.7572L105.35 34.9301L101.924 31.7621L108.494 22.3066L114.183 27.5664C116.945 30.1208 117.614 32.5462 116.47 34.1923C115.58 35.4756 113.949 35.6071 111.55 33.961C112.124 34.5965 112.523 35.2004 112.747 35.7702C113.115 36.7053 113.034 37.6745 112.667 38.9529L112.064 41.1396L108.214 37.5819L108.859 35.4756C109.414 33.7126 109.241 33.3205 107.959 32.1322L107.552 31.7548L107.555 31.7572ZM110.282 27.8319L108.832 29.9163L110.01 31.0048C111.173 32.0786 112.066 32.2905 112.536 31.616C113.013 30.9293 112.713 30.077 111.443 28.9057L110.28 27.8319H110.282Z" fill="black"/>
<path d="M112.813 40.5259C117.21 40.9155 121.621 41.3173 126.043 41.7361C126.751 43.2727 127.41 44.7556 128.023 46.1948C125.24 49.3092 122.811 52.8377 120.741 56.6681C120.118 55.2411 119.451 53.7752 118.736 52.2654C119.081 51.6932 119.436 51.1307 119.799 50.5755C119.042 48.961 118.234 47.2979 117.375 45.5763C116.738 45.5884 116.1 45.603 115.465 45.6201C114.626 43.9764 113.745 42.2816 112.815 40.5283L112.813 40.5259ZM122.928 45.5227C121.896 45.5324 120.867 45.5446 119.843 45.5592C120.324 46.5527 120.787 47.5292 121.232 48.4862C121.845 47.629 122.483 46.7962 123.142 45.9853C123.347 45.793 123.551 45.603 123.758 45.4155C123.48 45.4496 123.205 45.4862 122.928 45.5227Z" fill="black"/>
<path d="M121.522 79.0903L132.267 80.8704L131.814 85.9646L121.069 84.1845L121.522 79.0903Z" fill="black"/>
<path d="M121.013 86.6489L131.408 90.5158L130.237 95.1985L125.41 93.4039L129.026 100.047L127.67 105.472L124.4 99.0021L117.212 101.851L118.575 96.4063L124.023 94.5337L122.962 92.4931L119.843 91.334L121.013 86.6514V86.6489Z" fill="black"/>
<path d="M14.5168 78.4426L25.043 81.7373L23.751 88.0807C22.6901 93.2918 20.2252 95.683 16.8795 94.636C13.7649 93.6619 12.1419 90.1043 13.2028 84.8907L14.5143 78.4426H14.5168ZM21.5221 85.6894L15.9986 83.9605L15.7602 85.1318C15.2613 87.5815 16.0327 89.0693 17.8625 89.6416C19.7653 90.2382 20.7873 89.2885 21.3128 86.7122L21.5221 85.687V85.6894Z" fill="black"/>
<path d="M21.9237 106.558L21.8823 111.438L15.5948 111.051C12.3999 110.854 10.9594 107.88 10.9959 103.695C11.0348 99.2481 12.4632 96.7107 15.7164 96.9104L22.004 97.2976L21.9626 102.221L16.0887 101.861C14.5947 101.768 13.9377 102.336 13.9231 103.962C13.911 105.545 14.585 106.108 16.0498 106.198L21.9237 106.558Z" fill="black"/>
<path d="M23.2059 146.63L30.1942 137.584L33.484 140.937L30.238 145.137L36.8906 144.407L40.7035 148.291L34.3186 148.741L33.8879 157.515L30.0604 153.614L30.6176 147.093L28.5932 147.266L26.4957 149.978L23.2059 146.625V146.63Z" fill="black"/>
<path d="M37.7885 160.478C39.2971 156.297 40.684 152.279 41.9542 148.427C45.222 150.429 48.6383 152.15 52.1787 153.585C51.9354 154.434 51.6848 155.294 51.4268 156.166C49.1931 155.338 47.0056 154.398 44.8717 153.348C44.6892 153.913 44.5042 154.483 44.3169 155.055C46.0202 155.857 47.7575 156.587 49.524 157.249C49.2904 158.014 49.0496 158.788 48.8062 159.568C47.0105 158.944 45.2464 158.253 43.5139 157.491C43.3217 158.068 43.127 158.65 42.9275 159.236C45.2512 160.208 47.631 161.06 50.0594 161.788C49.7747 162.709 49.4802 163.639 49.181 164.581C45.2537 163.522 41.4481 162.151 37.7885 160.481V160.478Z" fill="black"/>
<path d="M58.0647 161.277C58.0355 162.658 58.0063 164.036 57.9796 165.417C56.4053 165.363 54.8358 165.31 53.2688 165.256C53.6289 161.146 53.9988 157.033 54.3735 152.922C56.5148 153.012 58.6658 153.1 60.8265 153.19C63.9484 153.319 65.749 154.822 65.9947 156.969C66.1772 158.642 65.1382 159.899 62.3862 160.254C63.1819 160.369 63.8316 160.576 64.3401 160.883C65.1747 161.384 65.7246 162.229 66.277 163.529C66.6006 164.265 66.934 165 67.2722 165.736C65.4886 165.675 63.7099 165.616 61.936 165.555C61.6806 164.832 61.4324 164.109 61.1915 163.386C60.6026 161.559 60.2571 161.36 58.5928 161.301C58.4176 161.294 58.2399 161.289 58.0647 161.282V161.277ZM58.1791 156.158C58.1572 157.064 58.1377 157.973 58.1183 158.878C58.6074 158.898 59.0989 158.915 59.5904 158.934C61.0479 158.988 61.829 158.528 61.7925 157.651C61.756 156.755 61.0893 156.273 59.5734 156.214C59.1086 156.197 58.6463 156.178 58.1815 156.161L58.1791 156.158Z" fill="black"/>
<path d="M68.7322 165.383L70.4379 151.951L74.8299 150.609L83.0178 161.021L78.8253 162.302L77.6111 160.639L73.1096 162.015L72.9271 164.104L68.7346 165.385L68.7322 165.383ZM73.6668 155.988L73.37 159.334L76.0563 158.513L74.1024 155.854L73.6547 155.07L73.6644 155.986L73.6668 155.988Z" fill="black"/>
<path d="M102.683 146.569L95.3666 137.133L98.6807 133.817L105.997 143.252L102.683 146.569Z" fill="black"/>
<path d="M108.579 140.742L100.245 132.485L102.99 128.822L106.861 132.657L105.832 125.031L109.012 120.786L109.781 128.099L117.492 128.851L114.3 133.113L108.555 132.285L108.825 134.606L111.326 137.082L108.582 140.744L108.579 140.742Z" fill="black"/>
<path d="M129.15 71.8582C126.563 71.135 123.979 70.4264 121.393 69.7348C121.227 68.2007 121.062 66.6691 120.896 65.1374C123.283 63.9515 125.67 62.7388 128.055 61.5018C125.57 61.8086 123.084 62.1106 120.599 62.4052C120.427 60.82 120.256 59.2396 120.083 57.6592C123.682 57.1795 127.284 56.6852 130.882 56.1787C131.148 58.699 131.413 61.2242 131.678 63.7543C129.174 64.9134 126.67 66.0457 124.164 67.1512C126.85 67.7356 129.534 68.3371 132.221 68.9507C132.483 71.4613 132.744 73.9768 133.007 76.4995C129.408 76.7844 125.809 77.0572 122.208 77.3177C122.035 75.7179 121.865 74.1204 121.692 72.523C124.176 72.3063 126.663 72.0847 129.147 71.8558L129.15 71.8582Z" fill="black"/>
<path d="M60.8995 22.5793C61.4761 25.3967 62.0504 28.2141 62.6271 31.029C61.3983 31.7036 60.1695 32.3781 58.9382 33.055C56.8846 31.0485 54.8309 29.0444 52.7772 27.0379C54.0985 29.4462 55.4173 31.8545 56.7386 34.2628C55.4636 34.9641 54.1885 35.663 52.9111 36.3643C50.9985 32.8773 49.086 29.3878 47.1735 25.9007C49.142 24.8196 51.1105 23.7384 53.079 22.6596C55.1205 24.8098 57.162 26.9576 59.2035 29.1078C58.5076 26.2197 57.8092 23.3342 57.1133 20.4462C59.0599 19.3771 61.0041 18.3106 62.9483 17.2416C64.8608 20.7286 66.7733 24.2181 68.6859 27.7051C67.4108 28.4065 66.1334 29.1053 64.8584 29.8066C63.5395 27.3983 62.2183 24.99 60.897 22.5817L60.8995 22.5793Z" fill="black"/>
<path d="M92.0378 144.918C92.8237 147.643 93.6608 150.37 94.5465 153.095C93.3785 153.84 92.1911 154.583 90.9793 155.328C88.7018 153.497 86.5216 151.666 84.4387 149.835C85.8087 152.109 87.2565 154.383 88.7918 156.66C87.5095 157.432 86.2053 158.204 84.8767 158.978C82.716 155.684 80.7232 152.389 78.9055 149.094C80.8667 147.903 82.772 146.71 84.6212 145.52C86.6189 147.492 88.7237 149.464 90.9307 151.437C90.006 148.651 89.1422 145.863 88.3392 143.077C90.0961 141.899 91.7969 140.722 93.4442 139.544C95.5003 142.838 97.7316 146.133 100.131 149.428C98.992 150.2 97.8289 150.972 96.6464 151.746C95.0307 149.472 93.4929 147.197 92.0402 144.921L92.0378 144.918Z" fill="black"/>
<path d="M22.4249 128.128C19.7629 127.899 17.1058 127.656 14.456 127.403C14.1129 125.905 13.7747 124.4 13.4413 122.885C15.6556 121.383 17.8455 119.932 20.0062 118.531C17.6338 119.055 15.2468 119.598 12.85 120.168C12.5094 118.588 12.1736 116.995 11.8427 115.398C15.2735 114.655 18.6801 113.958 22.0599 113.311C22.6341 115.656 23.223 117.979 23.8216 120.282C21.5416 121.614 19.2324 122.997 16.8965 124.432C19.6145 124.619 22.3373 124.799 25.065 124.97C25.6733 127.215 26.2889 129.441 26.9191 131.644C23.3641 132.621 19.7848 133.644 16.1811 134.715C15.8089 133.191 15.4439 131.657 15.0837 130.113C17.5438 129.429 19.9916 128.766 22.4249 128.128Z" fill="black"/>
</g>
<defs>
<clipPath id="clip0_2_110">
<rect width="144" height="178" fill="white" transform="translate(0 0.838867)"/>
</clipPath>
</defs>
</svg>
